<svg width="234" height="234" viewBox="0 0 234 234" fill="none" xmlns="http://www.w3.org/2000/svg">
<path d="M71.4992 29.25C80.492 29.25 88.8884 31.3081 96.6884 35.4242C104.488 39.5419 111.259 45.4464 117 53.1375C123.391 45.1214 130.405 39.1357 138.043 35.1804C145.68 31.2268 153.833 29.25 162.501 29.25C177.233 29.25 189.583 34.2331 199.551 44.1992C209.517 54.1669 214.5 66.5714 214.5 81.4125C214.5 83.3089 214.405 85.1776 214.215 87.0188C214.026 88.8599 213.715 90.7286 213.281 92.625H196.706C197.303 90.7286 197.709 88.8599 197.925 87.0188C198.141 85.1776 198.249 83.3089 198.249 81.4125C198.249 71.0125 194.891 62.4268 188.175 55.6554C181.459 48.8857 172.901 45.5008 162.501 45.5008C154.429 45.5008 146.927 47.9245 139.993 52.7719C133.061 57.6193 127.726 64.2411 123.988 72.6375H109.851C106.221 64.35 100.939 57.7549 94.0071 52.8523C87.0732 47.9513 79.5706 45.5008 71.4992 45.5008C61.0992 45.5008 52.5412 48.8857 45.825 55.6554C39.1089 62.4268 35.7509 71.0125 35.7509 81.4125C35.7509 83.3089 35.8589 85.1776 36.075 87.0188C36.2912 88.8599 36.6974 90.7286 37.2938 92.625H20.7188C20.2849 90.7286 19.9737 88.8599 19.7852 87.0188C19.5951 85.1776 19.5 83.3089 19.5 81.4125C19.5 66.5714 24.4831 54.1669 34.4492 44.1992C44.417 34.2331 56.767 29.25 71.4992 29.25ZM48.4259 141.375H70.2C76.05 147.604 82.7938 154.374 90.4313 161.687C98.0688 168.999 106.925 177.233 117 186.388C127.075 177.233 135.904 168.999 143.488 161.687C151.071 154.374 157.787 147.604 163.637 141.375H185.657C179.048 148.959 171.086 157.301 161.77 166.401C152.452 175.501 141.321 185.954 128.376 197.762L117 207.999L105.624 197.762C92.6795 185.954 81.562 175.501 72.2719 166.401C62.9818 157.301 55.0331 148.959 48.4259 141.375ZM107.738 154.374C109.416 154.374 110.892 153.874 112.166 152.873C113.439 151.87 114.346 150.556 114.887 148.931L129.188 106.275L139.505 121.551C140.318 122.633 141.293 123.499 142.43 124.149C143.568 124.799 144.841 125.124 146.25 125.124H222.624V108.876H150.881L133.575 83.3625C132.709 82.1161 131.639 81.2086 130.365 80.6398C129.092 80.0711 127.725 79.7867 126.263 79.7867C124.584 79.7867 123.081 80.288 121.753 81.2906C120.426 82.2933 119.491 83.6071 118.95 85.2321L104.813 127.805L94.4117 112.449C93.5992 111.367 92.6519 110.501 91.5696 109.851C90.4857 109.201 89.2394 108.876 87.8305 108.876H11.3759V125.124H82.9555L100.262 150.801C101.129 152.046 102.226 152.952 103.552 153.521C104.88 154.09 106.275 154.374 107.738 154.374Z" fill="#F5F5F5"/>
</svg>
