<svg width="234" height="234" viewBox="0 0 234 234" fill="none" xmlns="http://www.w3.org/2000/svg">
<path d="M131.625 214.337C113.641 214.337 98.5831 208.027 86.4508 195.407C74.3169 182.786 68.25 167.646 68.25 149.987V142.43C54.3839 140.48 42.7919 134.2 33.4742 123.589C24.1581 112.976 19.5 100.488 19.5 86.1242V29.25H48.75V19.5H65.0008V55.2508H48.75V45.5008H35.7508V86.073C35.7508 97.3749 39.7044 106.979 47.6117 114.887C55.5206 122.796 65.1081 126.75 76.3742 126.75C87.6419 126.75 97.2294 122.796 105.137 114.887C113.046 106.979 117 97.3749 117 86.073V45.5008H104.001V55.2508H87.75V19.5H104.001V29.25H133.251V86.1242C133.251 100.488 128.592 112.976 119.274 123.589C109.958 134.2 98.367 140.48 84.5008 142.43V149.987C84.5008 163.258 88.9826 174.592 97.9461 183.99C106.911 193.389 118.138 198.088 131.625 198.088C144.463 198.088 155.526 193.408 164.816 184.048C174.105 174.687 178.749 163.321 178.749 149.95V132.032C173.062 130.298 168.39 127.021 164.734 122.199C161.077 117.379 159.249 111.854 159.249 105.624C159.249 97.9509 161.937 91.429 167.312 86.0584C172.688 80.6861 179.216 78 186.895 78C194.573 78 201.094 80.6861 206.456 86.0584C211.819 91.429 214.5 97.9509 214.5 105.624C214.5 111.854 212.672 117.379 209.016 122.199C205.359 127.021 200.688 130.298 195 132.032V149.987C195 167.862 188.798 183.055 176.395 195.568C163.989 208.08 149.066 214.337 131.625 214.337ZM186.847 117C190.061 117 192.765 115.913 194.959 113.739C197.152 111.563 198.249 108.868 198.249 105.653C198.249 102.439 197.162 99.7352 194.988 97.5414C192.814 95.3477 190.119 94.2508 186.903 94.2508C183.688 94.2508 180.984 95.3379 178.791 97.5122C176.597 99.6864 175.5 102.381 175.5 105.597C175.5 108.812 176.587 111.516 178.761 113.709C180.937 115.903 183.632 117 186.847 117Z" fill="#F5F5F5"/>
</svg>
